PathFileType	4	(X/Y/Z)	subject01_walk1.trc
DataRate	CameraRate	NumFrames	NumMarkers	Units	OrigDataRate	OrigDataStartFrame	OrigNumFrames
60.00	60.00	       4	41	mm	60.00	157	       251
Frame#	Time	R.ASIS			L.ASIS			V.Sacral			R.Thigh.Upper			R.Thigh.Front			R.Thigh.Rear			L.Thigh.Upper			L.Thigh.Front			L.Thigh.Rear			R.Shank.Upper			R.Shank.Front			R.Shank.Rear			L.Shank.Upper			L.Shank.Front			L.Shank.Rear			R.Heel			R.Midfoot.Sup			R.Midfoot.Lat			R.Toe.Tip			L.Heel			L.Midfoot.Sup			L.Midfoot.Lat			L.Toe.Tip			Sternum			R.Acromium			L.Acromium			R.Bicep			L.Bicep			R.Elbow			L.Elbow			R.Wrist.Med			R.Wrist.Lat			L.Wrist.Med			L.Wrist.Lat			R.Toe.Lat			R.Toe.Med			L.Toe.Lat			L.Toe.Med			R.Temple			L.Temple			Top.Head			
		X1	Y1	Z1	X2	Y2	Z2	X3	Y3	Z3	X4	Y4	Z4	X5	Y5	Z5	X6	Y6	Z6	X7	Y7	Z7	X8	Y8	Z8	X9	Y9	Z9	X10	Y10	Z10	X11	Y11	Z11	X12	Y12	Z12	X13	Y13	Z13	X14	Y14	Z14	X15	Y15	Z15	X16	Y16	Z16	X17	Y17	Z17	X18	Y18	Z18	X19	Y19	Z19	X20	Y20	Z20	X21	Y21	Z21	X22	Y22	Z22	X23	Y23	Z23	X24	Y24	Z24	X25	Y25	Z25	X26	Y26	Z26	X27	Y27	Z27	X28	Y28	Z28	X29	Y29	Z29	X30	Y30	Z30	X31	Y31	Z31	X32	Y32	Z32	X33	Y33	Z33	X34	Y34	Z34	X35	Y35	Z35	X36	Y36	Z36	X37	Y37	Z37	X38	Y38	Z38	X39	Y39	Z39	X40	Y40	Z40	X41	Y41	Z41	

157      1.56000000	    609.68829879	   1087.57635051	    126.80309471	    622.86576238	   1070.33345744	   -132.50935904	    419.05835376	   1072.37000838	     -0.62721045	    649.51183174	    771.54568469	    196.02380392	    737.61407979	    726.84769536	    118.08577300	    677.81412213	    652.61192313	    198.90855338	    581.60084032	    763.46440724	   -176.04510038	    668.11507766	    730.55380287	   -105.02666382	    583.20754517	    653.55542773	   -153.77141160	    602.96930178	    527.09703082	    185.15533063	    640.22768853	    444.88594975	    143.74277841	    553.90986346	    455.48789653	    191.39448304	    570.72796001	    439.22713423	   -141.08396500	    614.88270210	    389.75866472	    -85.23074951	    549.91198526	    396.46834368	   -147.26122410	    300.35244841	    286.63739167	     82.73321132	    407.63622301	    184.92445423	     77.64587525	    369.92218284	    186.40749514	    176.23886338	    477.37170803	     65.04611063	    136.87390990	    464.78324804	     76.39603230	    -44.58091933	    635.10514333	     75.79829836	    -13.22689368	    620.50732616	     68.49856193	   -110.74742382	    746.59149530	     50.15434899	    -41.47559661	    635.66167449	   1388.06636524	    -19.52516488	    521.07850742	   1483.01938970	    180.04426476	    580.36210426	   1490.08315540	   -234.66967255	    516.44351456	   1286.02379376	    236.11068925	    623.95264815	   1252.35134933	   -250.32623368	    465.11077743	   1187.68467109	    266.92160377	    588.81624583	   1150.86943928	   -288.15052123	    585.03996988	    946.18318287	    283.40831433	    538.97385979	    938.62018116	    331.06584626	    718.15205650	    939.05166883	   -224.95141210	    680.59587598	    921.97888375	   -287.86837562	    408.03079978	    104.72096224	    202.76046508	    446.24836647	     98.86202595	     97.23156727	    683.22989137	     42.42731943	   -117.82690007	    696.32021012	     51.19533107	    -16.86449413	    693.06897481	   1614.54878934	     59.17709356	    710.44914336	   1616.99577179	    -79.05969950	    695.80467622	   1791.99843408	     -5.40076871
158      1.57000000	    609.86958030	   1088.89492804	    125.30058871	    621.12961122	   1070.15002625	   -133.98231927	    417.91641487	   1072.84133456	     -0.73952475	    653.46201181	    774.67993409	    195.57978533	    741.73580252	    730.97993208	    116.44649535	    684.12436801	    656.14216576	    197.91368059	    575.77814380	    763.65852108	   -176.48222477	    662.59254687	    729.67398424	   -105.64337723	    576.00463229	    653.98596619	   -154.47584906	    611.22466422	    527.85344893	    183.99765316	    651.37395993	    447.08209973	    142.26553434	    564.83050164	    454.39904738	    190.78382383	    561.07755432	    438.96016968	   -141.39748239	    604.75997612	    389.39198385	    -85.49392313	    539.81934743	    396.58560440	   -147.32257220	    316.46277380	    276.74336823	     83.00391910	    428.01139291	    179.78954234	     77.29948993	    391.02360922	    179.47467243	    176.08815235	    502.95857092	     62.72152927	    135.74038479	    453.17163169	     76.53489540	    -44.58852988	    623.42551266	     75.52145411	    -12.94367023	    608.98560771	     68.60323421	   -110.75618696	    735.12631089	     49.92604445	    -41.58480380	    634.64969419	   1388.44810088	    -19.79258684	    519.83215123	   1483.07298464	    179.46930040	    580.10409166	   1491.04653053	   -235.05781186	    513.26354786	   1286.13159889	    235.77728270	    624.92824975	   1253.67460453	   -250.72181864	    461.30969093	   1188.39061814	    265.68691677	    590.73467458	   1152.02692918	   -289.20380780	    580.48227109	    946.52849093	    282.54196070	    534.42260703	    939.08517540	    329.72374636	    723.94464345	    943.05657295	   -224.09939424	    686.39767504	    924.60219644	   -285.87232998	    432.45520853	     99.86446068	    202.35868953	    470.59978853	     95.32148453	     96.26264890	    671.65589976	     42.27058481	   -117.93760027	    684.92634536	     51.07743755	    -16.93335559	    692.39690255	   1615.19802459	     59.23576152	    709.55050718	   1617.74363601	    -79.21944190	    694.79279417	   1792.37249073	     -5.34770651
159      1.58000000	    608.87083963	   1089.47777683	    123.98582567	    619.37232581	   1069.80630995	   -135.31799218	    416.63801876	   1073.14076057	     -0.78180827	    657.87684613	    777.70383112	    195.38329418	    745.08943456	    734.60514927	    114.50288581	    690.48154094	    659.59507836	    197.08033469	    569.72043501	    763.80608552	   -176.91660993	    658.24992064	    729.34592343	   -107.35616296	    569.19437348	    654.43260667	   -155.03519318	    619.50396847	    528.52874354	    184.55351182	    662.47967917	    448.99234309	    140.91025992	    575.03084961	    452.81898736	    190.16134763	    551.02418605	    438.92132560	   -142.17803626	    594.13844615	    389.06077397	    -85.41471953	    529.43648674	    396.71806871	   -147.41888667	    333.96828481	    265.38558822	     83.38876501	    449.93223606	    173.79605774	     76.97372664	    413.86579723	    171.53373176	    176.02170894	    530.35203712	     60.10591428	    134.68668806	    441.15341799	     76.67672865	    -44.64925681	    611.27276643	     75.22204123	    -12.47675992	    596.94873755	     68.74051605	   -110.78716438	    723.27388653	     49.70380397	    -41.68716863	    633.99849222	   1388.79776371	    -19.93710123	    518.48368864	   1483.09190831	    178.96932322	    579.77255712	   1492.08164987	   -235.49090709	    510.15030058	   1285.87683886	    235.33792456	    625.72553642	   1255.39176884	   -251.00283263	    457.49744124	   1188.94598611	    264.43049984	    592.51709160	   1152.55678085	   -289.06677194	    576.04605083	    946.83038679	    281.69231473	    529.43492955	    939.41435477	    328.56149763	    729.93936788	    946.61936775	   -222.77074942	    690.93897777	    927.49018742	   -283.89682107	    459.11943413	     94.10719582	    201.94298606	    496.31266804	     91.30593509	     95.52368015	    659.65001538	     42.13282093	   -118.07840298	    673.09145141	     50.92279695	    -16.99556796	    692.22834458	   1616.08814274	     59.04169873	    708.50569764	   1618.42129086	    -78.92688411	    693.38062910	   1792.85025011	     -5.47675371
160      1.59000000	    608.30010784	   1090.12637902	    123.05571359	    618.93030651	   1069.32974845	   -136.77964486	    415.31624306	   1073.26630096	     -0.77515059	    662.12133542	    780.20602224	    194.65333818	    747.49494974	    738.06170067	    112.92708316	    695.83792866	    662.69689067	    196.21614669	    563.91711592	    763.89979626	   -177.39244731	    653.69097525	    728.51296003	   -108.93069653	    561.90262959	    654.59662291	   -155.21564035	    627.12154403	    528.47830822	    183.86987812	    673.31496273	    450.63152717	    140.25354577	    586.27469778	    450.91620138	    189.34420380	    541.44358114	    439.21280608	   -142.49023939	    584.54184864	    389.01789654	    -85.36006804	    519.56693401	    396.85494370	   -147.54271222	    351.61773217	    253.48081782	     83.81322683	    471.79110030	    167.49828024	     76.72308571	    436.67420491	    163.35412905	    176.04002446	    557.53076413	     57.59041257	    133.90935910	    429.62912521	     76.81326504	    -44.77512983	    599.56635914	     74.93031788	    -11.83392169	    585.28154178	     68.89441166	   -110.85183465	    711.87540070	     49.49413903	    -41.76803545	    633.38042966	   1389.03740226	    -19.93751806	    517.83672279	   1483.12265530	    178.72111648	    579.50950236	   1492.75024308	   -235.55653310	    507.22396072	   1285.93073867	    234.42955203	    626.53826932	   1256.48701757	   -251.41336292	    453.96190354	   1189.31895242	    263.24720440	    594.16782765	   1152.98578225	   -289.53926587	    571.35008465	    947.12834922	    280.90783230	    524.63955597	    939.38535945	    327.50789374	    735.64730865	    950.45413873	   -220.62937165	    697.77312825	    930.17459714	   -283.12699406	    485.91167243	     87.97874861	    201.37391482	    521.54907316	     87.24322049	     95.14687151	    648.10133510	     42.02376352	   -118.23052999	    661.63281263	     50.72491640	    -17.05689341	    691.46669179	   1616.50056792	     59.12982253	    707.72089978	   1618.84883036	    -78.66945123	    692.06050558	   1793.21056152	     -5.32987108
